<svg width="31" height="29" viewBox="0 0 31 29" fill="none" xmlns="http://www.w3.org/2000/svg">
<path fill-rule="evenodd" clip-rule="evenodd" d="M1.75326 0.174805V13.6807H3.50651V0.174805H5.25977V13.6807H28.6365V11.7229H7.22341V0.174805H8.97667V9.94044H28.6365V8.18718H10.4611V0.174805H12.2143V6.41055H17.9241V0.174805H19.6774V6.41055H21.4306V0.174805H23.1839V6.41055H25.1767V0.174805H26.93V6.41055H28.6833V0.174805H30.4365V28.8113H28.6365V15.4924H26.6553V28.8113H24.9021V15.4924H3.50651H1.75326V17.2457H23.1663V28.8113H21.4131V19.034H1.75326V20.7872H19.9287V28.8113H18.1754V22.5639H12.454V28.8113H10.7007V22.5639H8.94745V28.8113H7.19419V22.5639H5.25977V28.8113H3.50651V22.5639H1.75326V28.8113H0V0.174805H1.75326Z" fill="#D3F4E4"/>
</svg>
